<svg width="24.000000" height="24.000000" viewBox="0 0 24 24" fill="none" xmlns="http://www.w3.org/2000/svg" xmlns:xlink="http://www.w3.org/1999/xlink">
	<desc>
			Created with Pixso.
	</desc>
	<defs/>
	<rect id="Iconly/Bold/Arrow - Down 2" rx="-0.500000" width="23.000000" height="23.000000" transform="translate(0.500000 0.500000)" fill="#FFFFFF" fill-opacity="0"/>
	<rect id="Iconly/Bold/Arrow - Down 2" rx="-0.500000" width="23.000000" height="23.000000" transform="translate(0.500000 0.500000)" fill="#FFFFFF" fill-opacity="0"/>
	<path id="Arrow - Down 2" d="M10.86 16.63C10.81 16.57 10.56 16.36 10.35 16.16C9.07 14.99 6.97 11.95 6.33 10.36C6.23 10.12 6.01 9.51 6 9.18C6 8.87 6.07 8.57 6.21 8.29C6.42 7.93 6.74 7.65 7.12 7.49C7.38 7.39 8.17 7.24 8.18 7.24C9.04 7.08 10.44 7 11.99 7C13.46 7 14.8 7.08 15.68 7.21C15.69 7.22 16.67 7.38 17 7.55C17.62 7.86 18 8.47 18 9.13L18 9.18C17.98 9.61 17.6 10.5 17.59 10.5C16.94 12.01 14.95 14.98 13.62 16.17C13.62 16.17 13.28 16.51 13.07 16.65C12.76 16.88 12.38 17 12 17C11.58 17 11.19 16.87 10.86 16.63Z" fill="#221D34" fill-opacity="1.000000" fill-rule="nonzero"/>
</svg>
